<svg width="282" height="34" viewBox="0 0 282 34" fill="none" xmlns="http://www.w3.org/2000/svg">
<path d="M8.76 28.24C7.66 28.24 6.55 28.2 5.43 28.12C4.31 28.06 3.33 27.92 2.49 27.7V7.51C2.93 7.43 3.4 7.36 3.9 7.3C4.4 7.22 4.91 7.16 5.43 7.12C5.95 7.08 6.46 7.05 6.96 7.03C7.48 7.01 7.97 7 8.43 7C9.69 7 10.86 7.1 11.94 7.3C13.02 7.48 13.95 7.79 14.73 8.23C15.53 8.67 16.15 9.25 16.59 9.97C17.03 10.69 17.25 11.58 17.25 12.64C17.25 13.62 17.01 14.46 16.53 15.16C16.07 15.86 15.42 16.42 14.58 16.84C15.84 17.26 16.77 17.88 17.37 18.7C17.97 19.52 18.27 20.56 18.27 21.82C18.27 23.96 17.49 25.57 15.93 26.65C14.37 27.71 11.98 28.24 8.76 28.24ZM6.21 18.64V24.97C6.63 25.01 7.08 25.04 7.56 25.06C8.04 25.08 8.48 25.09 8.88 25.09C9.66 25.09 10.38 25.04 11.04 24.94C11.72 24.84 12.3 24.67 12.78 24.43C13.28 24.17 13.67 23.83 13.95 23.41C14.25 22.99 14.4 22.45 14.4 21.79C14.4 20.61 13.97 19.79 13.11 19.33C12.25 18.87 11.06 18.64 9.54 18.64H6.21ZM6.21 15.67H8.88C10.32 15.67 11.45 15.47 12.27 15.07C13.09 14.65 13.5 13.91 13.5 12.85C13.5 11.85 13.07 11.14 12.21 10.72C11.37 10.3 10.27 10.09 8.91 10.09C8.33 10.09 7.81 10.1 7.35 10.12C6.91 10.14 6.53 10.17 6.21 10.21V15.67ZM34.8968 27.52C34.1968 27.7 33.2868 27.88 32.1668 28.06C31.0468 28.26 29.8168 28.36 28.4768 28.36C27.2168 28.36 26.1568 28.18 25.2968 27.82C24.4568 27.46 23.7768 26.96 23.2568 26.32C22.7568 25.68 22.3968 24.92 22.1768 24.04C21.9568 23.14 21.8468 22.16 21.8468 21.1V12.31H25.4768V20.53C25.4768 22.21 25.7168 23.41 26.1968 24.13C26.6968 24.85 27.5568 25.21 28.7768 25.21C29.2168 25.21 29.6768 25.19 30.1568 25.15C30.6568 25.11 31.0268 25.06 31.2668 25V12.31H34.8968V27.52ZM42.367 19.75C42.367 21.29 42.697 22.42 43.357 23.14C44.037 23.84 44.907 24.19 45.967 24.19C46.547 24.19 47.087 24.11 47.587 23.95C48.107 23.79 48.527 23.6 48.847 23.38V15.25C48.587 15.19 48.267 15.14 47.887 15.1C47.507 15.04 47.027 15.01 46.447 15.01C45.127 15.01 44.117 15.45 43.417 16.33C42.717 17.19 42.367 18.33 42.367 19.75ZM52.477 26.41C52.477 28.91 51.837 30.74 50.557 31.9C49.297 33.06 47.357 33.64 44.737 33.64C43.777 33.64 42.837 33.56 41.917 33.4C41.017 33.24 40.197 33.03 39.457 32.77L40.117 29.68C40.737 29.94 41.437 30.15 42.217 30.31C43.017 30.47 43.877 30.55 44.797 30.55C46.257 30.55 47.297 30.25 47.917 29.65C48.537 29.05 48.847 28.16 48.847 26.98V26.38C48.487 26.56 48.007 26.74 47.407 26.92C46.827 27.1 46.157 27.19 45.397 27.19C44.397 27.19 43.477 27.03 42.637 26.71C41.817 26.39 41.107 25.92 40.507 25.3C39.927 24.68 39.467 23.91 39.127 22.99C38.807 22.05 38.647 20.97 38.647 19.75C38.647 18.61 38.817 17.56 39.157 16.6C39.517 15.64 40.027 14.82 40.687 14.14C41.367 13.46 42.187 12.93 43.147 12.55C44.107 12.17 45.197 11.98 46.417 11.98C47.597 11.98 48.717 12.07 49.777 12.25C50.837 12.43 51.737 12.62 52.477 12.82V26.41Z" fill="#AD4C5F"/>
<path d="M63.9171 8.17L67.5471 7.57V12.31H73.1271V15.34H67.5471V21.73C67.5471 22.99 67.7471 23.89 68.1471 24.43C68.5471 24.97 69.2271 25.24 70.1871 25.24C70.8471 25.24 71.4271 25.17 71.9271 25.03C72.4471 24.89 72.8571 24.76 73.1571 24.64L73.7571 27.52C73.3371 27.7 72.7871 27.88 72.1071 28.06C71.4271 28.26 70.6271 28.36 69.7071 28.36C68.5871 28.36 67.6471 28.21 66.8871 27.91C66.1471 27.61 65.5571 27.18 65.1171 26.62C64.6771 26.04 64.3671 25.35 64.1871 24.55C64.0071 23.73 63.9171 22.8 63.9171 21.76V8.17ZM85.5762 15.58C85.2762 15.48 84.8562 15.38 84.3162 15.28C83.7962 15.16 83.1862 15.1 82.4862 15.1C82.0862 15.1 81.6562 15.14 81.1962 15.22C80.7562 15.3 80.4462 15.37 80.2662 15.43V28H76.6362V13.06C77.3362 12.8 78.2062 12.56 79.2462 12.34C80.3062 12.1 81.4762 11.98 82.7562 11.98C82.9962 11.98 83.2762 12 83.5962 12.04C83.9162 12.06 84.2362 12.1 84.5562 12.16C84.8762 12.2 85.1862 12.26 85.4862 12.34C85.7862 12.4 86.0262 12.46 86.2062 12.52L85.5762 15.58ZM94.2558 25.45C95.3758 25.45 96.2258 25.39 96.8058 25.27V21.25C96.6058 21.19 96.3158 21.13 95.9358 21.07C95.5558 21.01 95.1358 20.98 94.6758 20.98C94.2758 20.98 93.8658 21.01 93.4458 21.07C93.0458 21.13 92.6758 21.24 92.3358 21.4C92.0158 21.56 91.7558 21.79 91.5558 22.09C91.3558 22.37 91.2558 22.73 91.2558 23.17C91.2558 24.03 91.5258 24.63 92.0658 24.97C92.6058 25.29 93.3358 25.45 94.2558 25.45ZM93.9558 11.92C95.1558 11.92 96.1658 12.07 96.9858 12.37C97.8058 12.67 98.4558 13.09 98.9358 13.63C99.4358 14.17 99.7858 14.83 99.9858 15.61C100.206 16.37 100.316 17.21 100.316 18.13V27.64C99.7558 27.76 98.9058 27.9 97.7658 28.06C96.6458 28.24 95.3758 28.33 93.9558 28.33C93.0158 28.33 92.1558 28.24 91.3758 28.06C90.5958 27.88 89.9258 27.59 89.3658 27.19C88.8258 26.79 88.3958 26.27 88.0758 25.63C87.7758 24.99 87.6258 24.2 87.6258 23.26C87.6258 22.36 87.7958 21.6 88.1358 20.98C88.4958 20.36 88.9758 19.86 89.5758 19.48C90.1758 19.08 90.8658 18.8 91.6458 18.64C92.4458 18.46 93.2758 18.37 94.1358 18.37C94.5358 18.37 94.9558 18.4 95.3958 18.46C95.8358 18.5 96.3058 18.58 96.8058 18.7V18.1C96.8058 17.68 96.7558 17.28 96.6558 16.9C96.5558 16.52 96.3758 16.19 96.1158 15.91C95.8758 15.61 95.5458 15.38 95.1258 15.22C94.7258 15.06 94.2158 14.98 93.5958 14.98C92.7558 14.98 91.9858 15.04 91.2858 15.16C90.5858 15.28 90.0158 15.42 89.5758 15.58L89.1258 12.64C89.5858 12.48 90.2558 12.32 91.1358 12.16C92.0158 12 92.9558 11.92 93.9558 11.92ZM103.891 20.17C103.891 19.01 104.071 17.93 104.431 16.93C104.791 15.91 105.301 15.03 105.961 14.29C106.641 13.55 107.461 12.97 108.421 12.55C109.381 12.13 110.461 11.92 111.661 11.92C113.141 11.92 114.541 12.19 115.861 12.73L115.081 15.7C114.661 15.52 114.181 15.37 113.641 15.25C113.121 15.13 112.561 15.07 111.961 15.07C110.541 15.07 109.461 15.52 108.721 16.42C107.981 17.3 107.611 18.55 107.611 20.17C107.611 21.73 107.961 22.97 108.661 23.89C109.361 24.79 110.541 25.24 112.201 25.24C112.821 25.24 113.431 25.18 114.031 25.06C114.631 24.94 115.151 24.79 115.591 24.61L116.101 27.61C115.701 27.81 115.091 27.99 114.271 28.15C113.471 28.31 112.641 28.39 111.781 28.39C110.441 28.39 109.271 28.19 108.271 27.79C107.291 27.37 106.471 26.8 105.811 26.08C105.171 25.34 104.691 24.47 104.371 23.47C104.051 22.45 103.891 21.35 103.891 20.17ZM122.542 18.43C123.002 17.95 123.492 17.44 124.012 16.9C124.532 16.34 125.042 15.79 125.542 15.25C126.042 14.69 126.512 14.16 126.952 13.66C127.412 13.14 127.802 12.69 128.122 12.31H132.412C131.412 13.43 130.352 14.59 129.232 15.79C128.132 16.99 127.022 18.16 125.902 19.3C126.502 19.8 127.132 20.41 127.792 21.13C128.452 21.83 129.092 22.58 129.712 23.38C130.332 24.18 130.912 24.98 131.452 25.78C131.992 26.58 132.442 27.32 132.802 28H128.602C128.242 27.38 127.822 26.73 127.342 26.05C126.882 25.37 126.382 24.71 125.842 24.07C125.302 23.43 124.752 22.83 124.192 22.27C123.632 21.69 123.082 21.2 122.542 20.8V28H118.912V5.32L122.542 4.72V18.43ZM139.095 28H135.465V12.31H139.095V28ZM139.485 7.72C139.485 8.4 139.265 8.94 138.825 9.34C138.385 9.74 137.865 9.94 137.265 9.94C136.645 9.94 136.115 9.74 135.675 9.34C135.235 8.94 135.015 8.4 135.015 7.72C135.015 7.02 135.235 6.47 135.675 6.07C136.115 5.67 136.645 5.47 137.265 5.47C137.865 5.47 138.385 5.67 138.825 6.07C139.265 6.47 139.485 7.02 139.485 7.72ZM143.726 12.82C144.426 12.62 145.336 12.43 146.456 12.25C147.576 12.07 148.816 11.98 150.176 11.98C151.456 11.98 152.526 12.16 153.386 12.52C154.246 12.86 154.926 13.35 155.426 13.99C155.946 14.61 156.306 15.37 156.506 16.27C156.726 17.15 156.836 18.12 156.836 19.18V28H153.206V19.75C153.206 18.91 153.146 18.2 153.026 17.62C152.926 17.02 152.746 16.54 152.486 16.18C152.246 15.8 151.906 15.53 151.466 15.37C151.046 15.19 150.526 15.1 149.906 15.1C149.446 15.1 148.966 15.13 148.466 15.19C147.966 15.25 147.596 15.3 147.356 15.34V28H143.726V12.82ZM164.125 19.75C164.125 21.29 164.455 22.42 165.115 23.14C165.795 23.84 166.665 24.19 167.725 24.19C168.305 24.19 168.845 24.11 169.345 23.95C169.865 23.79 170.285 23.6 170.605 23.38V15.25C170.345 15.19 170.025 15.14 169.645 15.1C169.265 15.04 168.785 15.01 168.205 15.01C166.885 15.01 165.875 15.45 165.175 16.33C164.475 17.19 164.125 18.33 164.125 19.75ZM174.235 26.41C174.235 28.91 173.595 30.74 172.315 31.9C171.055 33.06 169.115 33.64 166.495 33.64C165.535 33.64 164.595 33.56 163.675 33.4C162.775 33.24 161.955 33.03 161.215 32.77L161.875 29.68C162.495 29.94 163.195 30.15 163.975 30.31C164.775 30.47 165.635 30.55 166.555 30.55C168.015 30.55 169.055 30.25 169.675 29.65C170.295 29.05 170.605 28.16 170.605 26.98V26.38C170.245 26.56 169.765 26.74 169.165 26.92C168.585 27.1 167.915 27.19 167.155 27.19C166.155 27.19 165.235 27.03 164.395 26.71C163.575 26.39 162.865 25.92 162.265 25.3C161.685 24.68 161.225 23.91 160.885 22.99C160.565 22.05 160.405 20.97 160.405 19.75C160.405 18.61 160.575 17.56 160.915 16.6C161.275 15.64 161.785 14.82 162.445 14.14C163.125 13.46 163.945 12.93 164.905 12.55C165.865 12.17 166.955 11.98 168.175 11.98C169.355 11.98 170.475 12.07 171.535 12.25C172.595 12.43 173.495 12.62 174.235 12.82V26.41ZM189.785 25.39C190.745 25.39 191.445 25.28 191.885 25.06C192.325 24.82 192.545 24.42 192.545 23.86C192.545 23.34 192.305 22.91 191.825 22.57C191.365 22.23 190.595 21.86 189.515 21.46C188.855 21.22 188.245 20.97 187.685 20.71C187.145 20.43 186.675 20.11 186.275 19.75C185.875 19.39 185.555 18.96 185.315 18.46C185.095 17.94 184.985 17.31 184.985 16.57C184.985 15.13 185.515 14 186.575 13.18C187.635 12.34 189.075 11.92 190.895 11.92C191.815 11.92 192.695 12.01 193.535 12.19C194.375 12.35 195.005 12.51 195.425 12.67L194.765 15.61C194.365 15.43 193.855 15.27 193.235 15.13C192.615 14.97 191.895 14.89 191.075 14.89C190.335 14.89 189.735 15.02 189.275 15.28C188.815 15.52 188.585 15.9 188.585 16.42C188.585 16.68 188.625 16.91 188.705 17.11C188.805 17.31 188.965 17.5 189.185 17.68C189.405 17.84 189.695 18.01 190.055 18.19C190.415 18.35 190.855 18.52 191.375 18.7C192.235 19.02 192.965 19.34 193.565 19.66C194.165 19.96 194.655 20.31 195.035 20.71C195.435 21.09 195.725 21.53 195.905 22.03C196.085 22.53 196.175 23.13 196.175 23.83C196.175 25.33 195.615 26.47 194.495 27.25C193.395 28.01 191.815 28.39 189.755 28.39C188.375 28.39 187.265 28.27 186.425 28.03C185.585 27.81 184.995 27.63 184.655 27.49L185.285 24.46C185.825 24.68 186.465 24.89 187.205 25.09C187.965 25.29 188.825 25.39 189.785 25.39ZM212.376 12.31C210.756 18.27 208.876 23.67 206.736 28.51C206.336 29.41 205.926 30.18 205.506 30.82C205.086 31.46 204.616 31.99 204.096 32.41C203.576 32.83 202.996 33.13 202.356 33.31C201.716 33.51 200.976 33.61 200.136 33.61C199.576 33.61 199.016 33.55 198.456 33.43C197.916 33.31 197.506 33.18 197.226 33.04L197.886 30.13C198.606 30.41 199.316 30.55 200.016 30.55C200.956 30.55 201.686 30.32 202.206 29.86C202.746 29.42 203.216 28.73 203.616 27.79C202.476 25.59 201.376 23.19 200.316 20.59C199.276 17.99 198.346 15.23 197.526 12.31H201.396C201.596 13.15 201.836 14.06 202.116 15.04C202.416 16.02 202.736 17.02 203.076 18.04C203.416 19.04 203.776 20.04 204.156 21.04C204.536 22.04 204.916 22.97 205.296 23.83C205.936 22.05 206.536 20.16 207.096 18.16C207.656 16.14 208.166 14.19 208.626 12.31H212.376ZM219.053 25.39C220.013 25.39 220.713 25.28 221.153 25.06C221.593 24.82 221.813 24.42 221.813 23.86C221.813 23.34 221.573 22.91 221.093 22.57C220.633 22.23 219.863 21.86 218.783 21.46C218.123 21.22 217.513 20.97 216.953 20.71C216.413 20.43 215.943 20.11 215.543 19.75C215.143 19.39 214.823 18.96 214.583 18.46C214.363 17.94 214.253 17.31 214.253 16.57C214.253 15.13 214.783 14 215.843 13.18C216.903 12.34 218.343 11.92 220.163 11.92C221.083 11.92 221.963 12.01 222.803 12.19C223.643 12.35 224.273 12.51 224.693 12.67L224.033 15.61C223.633 15.43 223.123 15.27 222.503 15.13C221.883 14.97 221.163 14.89 220.343 14.89C219.603 14.89 219.003 15.02 218.543 15.28C218.083 15.52 217.853 15.9 217.853 16.42C217.853 16.68 217.893 16.91 217.973 17.11C218.073 17.31 218.233 17.5 218.453 17.68C218.673 17.84 218.963 18.01 219.323 18.19C219.683 18.35 220.123 18.52 220.643 18.7C221.503 19.02 222.233 19.34 222.833 19.66C223.433 19.96 223.923 20.31 224.303 20.71C224.703 21.09 224.993 21.53 225.173 22.03C225.353 22.53 225.443 23.13 225.443 23.83C225.443 25.33 224.883 26.47 223.763 27.25C222.663 28.01 221.083 28.39 219.023 28.39C217.643 28.39 216.533 28.27 215.693 28.03C214.853 27.81 214.263 27.63 213.923 27.49L214.553 24.46C215.093 24.68 215.733 24.89 216.473 25.09C217.233 25.29 218.093 25.39 219.053 25.39ZM228.653 8.17L232.283 7.57V12.31H237.863V15.34H232.283V21.73C232.283 22.99 232.483 23.89 232.883 24.43C233.283 24.97 233.963 25.24 234.923 25.24C235.583 25.24 236.163 25.17 236.663 25.03C237.183 24.89 237.593 24.76 237.893 24.64L238.493 27.52C238.073 27.7 237.523 27.88 236.843 28.06C236.163 28.26 235.363 28.36 234.443 28.36C233.323 28.36 232.383 28.21 231.623 27.91C230.883 27.61 230.293 27.18 229.853 26.62C229.413 26.04 229.103 25.35 228.923 24.55C228.743 23.73 228.653 22.8 228.653 21.76V8.17ZM240.239 20.23C240.239 18.85 240.439 17.64 240.839 16.6C241.259 15.56 241.809 14.7 242.489 14.02C243.169 13.32 243.949 12.8 244.829 12.46C245.709 12.1 246.609 11.92 247.529 11.92C249.689 11.92 251.369 12.59 252.569 13.93C253.789 15.27 254.399 17.27 254.399 19.93C254.399 20.13 254.389 20.36 254.369 20.62C254.369 20.86 254.359 21.08 254.339 21.28H243.989C244.089 22.54 244.529 23.52 245.309 24.22C246.109 24.9 247.259 25.24 248.759 25.24C249.639 25.24 250.439 25.16 251.159 25C251.899 24.84 252.479 24.67 252.899 24.49L253.379 27.46C253.179 27.56 252.899 27.67 252.539 27.79C252.199 27.89 251.799 27.98 251.339 28.06C250.899 28.16 250.419 28.24 249.899 28.3C249.379 28.36 248.849 28.39 248.309 28.39C246.929 28.39 245.729 28.19 244.709 27.79C243.689 27.37 242.849 26.8 242.189 26.08C241.529 25.34 241.039 24.48 240.719 23.5C240.399 22.5 240.239 21.41 240.239 20.23ZM250.769 18.61C250.769 18.11 250.699 17.64 250.559 17.2C250.419 16.74 250.209 16.35 249.929 16.03C249.669 15.69 249.339 15.43 248.939 15.25C248.559 15.05 248.099 14.95 247.559 14.95C246.999 14.95 246.509 15.06 246.089 15.28C245.669 15.48 245.309 15.75 245.009 16.09C244.729 16.43 244.509 16.82 244.349 17.26C244.189 17.7 244.079 18.15 244.019 18.61H250.769ZM267.188 19.75C267.188 18.11 266.978 16.93 266.558 16.21C266.158 15.47 265.398 15.1 264.278 15.1C263.878 15.1 263.438 15.13 262.958 15.19C262.478 15.25 262.118 15.3 261.878 15.34V28H258.248V12.82C258.948 12.62 259.858 12.43 260.978 12.25C262.118 12.07 263.318 11.98 264.578 11.98C265.658 11.98 266.538 12.12 267.218 12.4C267.918 12.68 268.498 13.05 268.958 13.51C269.178 13.35 269.458 13.18 269.798 13C270.138 12.82 270.518 12.66 270.938 12.52C271.358 12.36 271.798 12.23 272.258 12.13C272.738 12.03 273.218 11.98 273.698 11.98C274.918 11.98 275.918 12.16 276.698 12.52C277.498 12.86 278.118 13.35 278.558 13.99C279.018 14.61 279.328 15.37 279.488 16.27C279.668 17.15 279.758 18.12 279.758 19.18V28H276.128V19.75C276.128 18.11 275.928 16.93 275.528 16.21C275.128 15.47 274.358 15.1 273.218 15.1C272.638 15.1 272.088 15.2 271.568 15.4C271.048 15.58 270.658 15.76 270.398 15.94C270.558 16.44 270.668 16.97 270.728 17.53C270.788 18.09 270.818 18.69 270.818 19.33V28H267.188V19.75Z" fill="#094067"/>
</svg>
